<svg width="30" height="31" viewBox="0 0 30 31" fill="none" xmlns="http://www.w3.org/2000/svg">
<path fill-rule="evenodd" clip-rule="evenodd" d="M3.75 6.75037C3.75 3.98894 5.98858 1.75037 8.75 1.75037H19.1789C20.505 1.75037 21.7768 2.27715 22.7145 3.21483L24.7855 5.2859C25.7232 6.22358 26.25 7.49535 26.25 8.82143V24.2504C26.25 27.0118 24.0114 29.2504 21.25 29.2504H8.75C5.98858 29.2504 3.75 27.0118 3.75 24.2504V6.75037ZM23.75 10.5004V24.2504C23.75 25.6311 22.6307 26.7504 21.25 26.7504H8.75C7.36929 26.7504 6.25 25.6311 6.25 24.2504V6.75037C6.25 5.36965 7.36929 4.25037 8.75 4.25037H17.5V6.75037C17.5 8.82143 19.1789 10.5004 21.25 10.5004H23.75ZM23.6113 8.00037C23.4886 7.64736 23.2871 7.32296 23.0178 7.05367L20.9467 4.9826C20.6774 4.71331 20.353 4.51179 20 4.38904V6.75037C20 7.44072 20.5596 8.00037 21.25 8.00037H23.6113Z" fill="#12131A"/>
<path d="M10.0002 4.87537C10.0002 4.53019 10.2801 4.25037 10.6252 4.25037H11.8752C12.2204 4.25037 12.5002 4.53019 12.5002 4.87537V6.12537C12.5002 6.47054 12.2204 6.75037 11.8752 6.75037H10.6252C10.2801 6.75037 10.0002 6.47054 10.0002 6.12537V4.87537Z" fill="#12131A"/>
<path d="M10.0002 9.87537C10.0002 9.53019 10.2801 9.25037 10.6252 9.25037H11.8752C12.2204 9.25037 12.5002 9.53019 12.5002 9.87537V11.1254C12.5002 11.4705 12.2204 11.7504 11.8752 11.7504H10.6252C10.2801 11.7504 10.0002 11.4705 10.0002 11.1254V9.87537Z" fill="#12131A"/>
<path d="M12.5002 12.3754C12.5002 12.0302 12.7801 11.7504 13.1252 11.7504H14.3752C14.7204 11.7504 15.0002 12.0302 15.0002 12.3754V13.6254C15.0002 13.9705 14.7204 14.2504 14.3752 14.2504H13.1252C12.7801 14.2504 12.5002 13.9705 12.5002 13.6254V12.3754Z" fill="#12131A"/>
<path d="M10.6252 14.2504C10.2801 14.2504 10.0002 14.5302 10.0002 14.8754V16.1254C10.0002 16.4705 10.2801 16.7504 10.6252 16.7504H11.8752C12.2204 16.7504 12.5002 16.4705 12.5002 16.1254V14.8754C12.5002 14.5302 12.2204 14.2504 11.8752 14.2504H10.6252Z" fill="#12131A"/>
<path d="M12.5002 17.3754C12.5002 17.0302 12.7801 16.7504 13.1252 16.7504H14.3752C14.7204 16.7504 15.0002 17.0302 15.0002 17.3754V18.6254C15.0002 18.9705 14.7204 19.2504 14.3752 19.2504H13.1252C12.7801 19.2504 12.5002 18.9705 12.5002 18.6254V17.3754Z" fill="#12131A"/>
<path d="M10.6252 19.2504C10.2801 19.2504 10.0002 19.5302 10.0002 19.8754V21.1254C10.0002 21.4705 10.2801 21.7504 10.6252 21.7504H11.8752C12.2204 21.7504 12.5002 21.4705 12.5002 21.1254V19.8754C12.5002 19.5302 12.2204 19.2504 11.8752 19.2504H10.6252Z" fill="#12131A"/>
<path d="M12.5002 22.3754C12.5002 22.0302 12.7801 21.7504 13.1252 21.7504H14.3752C14.7204 21.7504 15.0002 22.0302 15.0002 22.3754V23.6254C15.0002 23.9705 14.7204 24.2504 14.3752 24.2504H13.1252C12.7801 24.2504 12.5002 23.9705 12.5002 23.6254V22.3754Z" fill="#12131A"/>
<path d="M10.6252 24.2504C10.2801 24.2504 10.0002 24.5302 10.0002 24.8754V26.1254C10.0002 26.4705 10.2801 26.7504 10.6252 26.7504H11.8752C12.2204 26.7504 12.5002 26.4705 12.5002 26.1254V24.8754C12.5002 24.5302 12.2204 24.2504 11.8752 24.2504H10.6252Z" fill="#12131A"/>
<path d="M13.1252 6.75037C12.7801 6.75037 12.5002 7.03019 12.5002 7.37537V8.62537C12.5002 8.97054 12.7801 9.25037 13.1252 9.25037H14.3752C14.7204 9.25037 15.0002 8.97054 15.0002 8.62537V7.37537C15.0002 7.03019 14.7204 6.75037 14.3752 6.75037H13.1252Z" fill="#12131A"/>
</svg>
