<svg width="25" height="25" viewBox="0 0 25 25" fill="none" xmlns="http://www.w3.org/2000/svg">
<path fill-rule="evenodd" clip-rule="evenodd" d="M3.50854 20.8998C3.50854 20.5815 3.64394 20.2763 3.88494 20.0513C4.12595 19.8262 4.45282 19.6998 4.79365 19.6998H20.2149C20.5557 19.6998 20.8826 19.8262 21.1236 20.0513C21.3646 20.2763 21.5 20.5815 21.5 20.8998C21.5 21.218 21.3646 21.5233 21.1236 21.7483C20.8826 21.9734 20.5557 22.0998 20.2149 22.0998H4.79365C4.45282 22.0998 4.12595 21.9734 3.88494 21.7483C3.64394 21.5233 3.50854 21.218 3.50854 20.8998ZM7.74038 11.6514C7.98137 11.4264 8.30818 11.3 8.64895 11.3C8.98971 11.3 9.31652 11.4264 9.55751 11.6514L11.2191 13.203V4.09978C11.2191 3.78152 11.3545 3.4763 11.5955 3.25125C11.8365 3.02621 12.1634 2.89978 12.5042 2.89978C12.8451 2.89978 13.1719 3.02621 13.413 3.25125C13.654 3.4763 13.7893 3.78152 13.7893 4.09978V13.203L15.451 11.6514C15.5695 11.5368 15.7113 11.4453 15.8681 11.3825C16.0249 11.3196 16.1935 11.2865 16.3642 11.2851C16.5348 11.2837 16.704 11.3141 16.862 11.3744C17.0199 11.4347 17.1634 11.5238 17.284 11.6365C17.4047 11.7492 17.5001 11.8832 17.5647 12.0306C17.6294 12.1781 17.6619 12.3361 17.6604 12.4955C17.6589 12.6548 17.6235 12.8123 17.5561 12.9587C17.4888 13.1051 17.3909 13.2375 17.2681 13.3482L13.4128 16.9482C13.1718 17.1731 12.845 17.2995 12.5042 17.2995C12.1635 17.2995 11.8367 17.1731 11.5957 16.9482L7.74038 13.3482C7.49946 13.1231 7.36412 12.818 7.36412 12.4998C7.36412 12.1816 7.49946 11.8764 7.74038 11.6514Z" fill="white"/>
</svg>
