<svg width="30" height="31" viewBox="0 0 30 31" fill="none" xmlns="http://www.w3.org/2000/svg">
<path fill-rule="evenodd" clip-rule="evenodd" d="M3.75 6.75037C3.75 3.98894 5.98858 1.75037 8.75 1.75037H19.1789C20.505 1.75037 21.7768 2.27715 22.7145 3.21483L24.7855 5.2859C25.7232 6.22358 26.25 7.49535 26.25 8.82143V24.2504C26.25 27.0118 24.0114 29.2504 21.25 29.2504H8.75C5.98858 29.2504 3.75 27.0118 3.75 24.2504V6.75037ZM23.75 10.5004V24.2504C23.75 25.6311 22.6307 26.7504 21.25 26.7504H8.75C7.36929 26.7504 6.25 25.6311 6.25 24.2504V6.75037C6.25 5.36965 7.36929 4.25037 8.75 4.25037H17.5V6.75037C17.5 8.82143 19.1789 10.5004 21.25 10.5004H23.75ZM23.6113 8.00037C23.4886 7.64736 23.2871 7.32296 23.0178 7.05367L20.9467 4.9826C20.6774 4.71331 20.353 4.51179 20 4.38904V6.75037C20 7.44072 20.5596 8.00037 21.25 8.00037H23.6113Z" fill="#12131A"/>
<path d="M11.2502 15.5004C10.5599 15.5004 10.0002 16.06 10.0002 16.7504C10.0002 17.4407 10.5599 18.0004 11.2502 18.0004H18.7502C19.4406 18.0004 20.0002 17.4407 20.0002 16.7504C20.0002 16.06 19.4406 15.5004 18.7502 15.5004H11.2502Z" fill="#12131A"/>
<path d="M11.2502 20.5004C10.5599 20.5004 10.0002 21.06 10.0002 21.7504C10.0002 22.4407 10.5599 23.0004 11.2502 23.0004H15.0002C15.6906 23.0004 16.2502 22.4407 16.2502 21.7504C16.2502 21.06 15.6906 20.5004 15.0002 20.5004H11.2502Z" fill="#12131A"/>
</svg>
