<svg width="15" height="15" viewBox="0 0 15 15" fill="none" xmlns="http://www.w3.org/2000/svg">
<g clip-path="url(#clip0_1_1068)">
<path d="M7.50299 4.25227C9.48999 4.25227 11.093 5.85527 11.093 7.84227C11.093 9.82927 9.49999 11.4323 7.50299 11.4323C5.50599 11.4323 3.91399 9.82927 3.91399 7.84227C3.91399 5.85527 5.51699 4.25227 7.50399 4.25227H7.50299ZM7.50299 10.1753C8.12134 10.1737 8.71394 9.92742 9.15127 9.49027C9.58861 9.05311 9.83514 8.46063 9.83699 7.84227C9.83699 6.55527 8.78999 5.50827 7.50299 5.50827C6.21599 5.50827 5.16999 6.55527 5.16999 7.84227C5.17157 8.4608 5.41798 9.05354 5.85535 9.49091C6.29272 9.92828 6.88546 10.1747 7.50399 10.1763L7.50299 10.1753ZM12.076 4.10527C12.0799 4.21756 12.0611 4.32947 12.0208 4.43435C11.9805 4.53923 11.9195 4.63493 11.8415 4.71573C11.7634 4.79654 11.6699 4.8608 11.5665 4.90469C11.463 4.94858 11.3518 4.9712 11.2395 4.9712C11.1271 4.9712 11.0159 4.94858 10.9125 4.90469C10.8091 4.8608 10.7156 4.79654 10.6375 4.71573C10.5594 4.63493 10.4984 4.53923 10.4582 4.43435C10.4179 4.32947 10.3991 4.21756 10.403 4.10527C10.4105 3.88843 10.5019 3.68296 10.658 3.53221C10.814 3.38146 11.0225 3.2972 11.2395 3.2972C11.4565 3.2972 11.665 3.38146 11.821 3.53221C11.9771 3.68296 12.0685 3.88843 12.076 4.10527ZM14.453 4.95527C14.519 6.11127 14.519 9.57227 14.453 10.7283C14.397 11.8503 14.141 12.8433 13.323 13.6613C12.505 14.4793 11.51 14.7403 10.4 14.7923C9.24399 14.8583 5.77999 14.8583 4.62399 14.7923C3.50399 14.7363 2.51199 14.4803 1.69099 13.6623C0.869988 12.8443 0.601988 11.8503 0.549988 10.7293C0.483988 9.57227 0.483988 6.10827 0.549988 4.94227C0.604988 3.83227 0.857988 2.83727 1.67999 2.01927C2.50199 1.20127 3.49499 0.944273 4.61299 0.892273C5.76999 0.826273 9.23399 0.826273 10.4 0.892273C11.522 0.948273 12.515 1.20427 13.333 2.02227C14.151 2.84027 14.411 3.83427 14.463 4.95527H14.453ZM12.96 11.9683C13.326 11.0503 13.24 8.86027 13.24 7.84127C13.24 6.82227 13.324 4.63627 12.96 3.71427C12.8413 3.41297 12.6619 3.13931 12.4329 2.91033C12.2039 2.68135 11.9303 2.50194 11.629 2.38327C10.711 2.02127 8.52099 2.10327 7.50199 2.10327C6.48299 2.10327 4.29699 2.01927 3.37499 2.38327C3.07369 2.50194 2.80003 2.68135 2.57105 2.91033C2.34206 3.13931 2.16266 3.41297 2.04399 3.71427C1.68199 4.63227 1.76399 6.82227 1.76399 7.84127C1.76399 8.86027 1.67999 11.0463 2.04399 11.9683C2.16266 12.2696 2.34206 12.5432 2.57105 12.7722C2.80003 13.0012 3.07369 13.1806 3.37499 13.2993C4.29299 13.6613 6.48299 13.5793 7.50199 13.5793C8.52099 13.5793 10.707 13.6633 11.629 13.2993C11.9303 13.1806 12.2039 13.0012 12.4329 12.7722C12.6619 12.5432 12.8413 12.2696 12.96 11.9683Z" fill="#919EAB"/>
</g>
<defs>
<clipPath id="clip0_1_1068">
<rect width="14" height="14" fill="white" transform="translate(0.5 0.842285)"/>
</clipPath>
</defs>
</svg>
