<svg width="16" height="16" viewBox="0 0 16 16" fill="none" xmlns="http://www.w3.org/2000/svg">
<g clip-path="url(#clip0_1_1072)">
<path d="M3.85795 15.3423V5.32827H0.757948V15.3423H3.85795ZM2.29995 3.96227C3.29395 3.96227 4.09995 3.13827 4.09995 2.14427C4.09995 1.9077 4.05335 1.67344 3.96282 1.45487C3.87228 1.2363 3.73959 1.03771 3.5723 0.870421C3.40502 0.703136 3.20642 0.570438 2.98785 0.479904C2.76928 0.389371 2.53502 0.342773 2.29845 0.342773C2.06187 0.342773 1.82761 0.389371 1.60904 0.479904C1.39048 0.570438 1.19188 0.703136 1.0246 0.870421C0.857311 1.03771 0.724613 1.2363 0.634079 1.45487C0.543545 1.67344 0.496948 1.9077 0.496948 2.14427C0.499948 3.13827 1.30695 3.96227 2.29995 3.96227ZM15.5029 15.3423H12.3959L12.3949 10.2143C12.3849 9.10027 12.2589 7.81627 10.7789 7.81627C9.16195 7.81627 8.91395 9.07827 8.91395 10.3843V15.3423H5.80695V5.32827H8.79995V6.69427H8.84395C9.25895 5.90727 10.2739 5.07727 11.7869 5.07727C14.9339 5.07727 15.5139 7.15027 15.5139 9.84227V15.3423H15.5029Z" fill="#919EAB"/>
</g>
<defs>
<clipPath id="clip0_1_1072">
<rect width="15" height="15" fill="white" transform="translate(0.5 0.342285)"/>
</clipPath>
</defs>
</svg>
