<svg width="270" height="32" viewBox="0 0 270 32" fill="none" xmlns="http://www.w3.org/2000/svg">
<rect x="1.61914" y="28.6418" width="114.904" height="2" fill="#FFC700"/>
<path d="M13.0391 22.6418H9.96114L4.81314 14.8478V22.6418H1.73514V10.0058H4.81314L9.96114 17.8358V10.0058H13.0391V22.6418ZM24.3179 22.7678C23.1299 22.7678 22.0379 22.4918 21.0419 21.9398C20.0579 21.3878 19.2719 20.6198 18.6839 19.6358C18.1079 18.6398 17.8199 17.5238 17.8199 16.2878C17.8199 15.0518 18.1079 13.9418 18.6839 12.9578C19.2719 11.9738 20.0579 11.2058 21.0419 10.6538C22.0379 10.1018 23.1299 9.82585 24.3179 9.82585C25.5059 9.82585 26.5919 10.1018 27.5759 10.6538C28.5719 11.2058 29.3519 11.9738 29.9159 12.9578C30.4919 13.9418 30.7799 15.0518 30.7799 16.2878C30.7799 17.5238 30.4919 18.6398 29.9159 19.6358C29.3399 20.6198 28.5599 21.3878 27.5759 21.9398C26.5919 22.4918 25.5059 22.7678 24.3179 22.7678ZM24.3179 19.9598C25.3259 19.9598 26.1299 19.6238 26.7299 18.9518C27.3419 18.2798 27.6479 17.3918 27.6479 16.2878C27.6479 15.1718 27.3419 14.2838 26.7299 13.6238C26.1299 12.9518 25.3259 12.6158 24.3179 12.6158C23.2979 12.6158 22.4819 12.9458 21.8699 13.6058C21.2699 14.2658 20.9699 15.1598 20.9699 16.2878C20.9699 17.4038 21.2699 18.2978 21.8699 18.9698C22.4819 19.6298 23.2979 19.9598 24.3179 19.9598ZM44.6539 10.0058V12.4718H41.3059V22.6418H38.2279V12.4718H34.8799V10.0058H44.6539ZM60.2143 10.0058V22.6418H57.1363V17.4398H52.3483V22.6418H49.2703V10.0058H52.3483V14.9558H57.1363V10.0058H60.2143ZM68.5859 10.0058V22.6418H65.5079V10.0058H68.5859ZM85.1921 22.6418H82.1141L76.9661 14.8478V22.6418H73.8881V10.0058H76.9661L82.1141 17.8358V10.0058H85.1921V22.6418ZM98.8829 14.0018C98.6549 13.5818 98.3249 13.2638 97.8929 13.0478C97.4729 12.8198 96.9749 12.7058 96.3989 12.7058C95.4029 12.7058 94.6049 13.0358 94.0049 13.6958C93.4049 14.3438 93.1049 15.2138 93.1049 16.3058C93.1049 17.4698 93.4169 18.3818 94.0409 19.0418C94.6769 19.6898 95.5469 20.0138 96.6509 20.0138C97.4069 20.0138 98.0429 19.8218 98.5589 19.4378C99.0869 19.0538 99.4709 18.5018 99.7109 17.7818H95.8049V15.5138H102.501V18.3758C102.273 19.1438 101.883 19.8578 101.331 20.5178C100.791 21.1778 100.101 21.7118 99.2609 22.1198C98.4209 22.5278 97.4729 22.7318 96.4169 22.7318C95.1689 22.7318 94.0529 22.4618 93.0689 21.9218C92.0969 21.3698 91.3349 20.6078 90.7829 19.6358C90.2429 18.6638 89.9729 17.5538 89.9729 16.3058C89.9729 15.0578 90.2429 13.9478 90.7829 12.9758C91.3349 11.9918 92.0969 11.2298 93.0689 10.6898C94.0409 10.1378 95.1509 9.86185 96.3989 9.86185C97.9109 9.86185 99.1829 10.2278 100.215 10.9598C101.259 11.6918 101.949 12.7058 102.285 14.0018H98.8829ZM125.108 10.0058V22.6418H122.03V17.4398H117.242V22.6418H114.164V10.0058H117.242V14.9558H122.03V10.0058H125.108ZM133.479 12.4718V15.0278H137.601V17.4038H133.479V20.1758H138.141V22.6418H130.401V10.0058H138.141V12.4718H133.479ZM146.289 20.2658H150.321V22.6418H143.211V10.0058H146.289V20.2658ZM159.595 10.0058C160.927 10.0058 162.091 10.2698 163.087 10.7978C164.083 11.3258 164.851 12.0698 165.391 13.0298C165.943 13.9778 166.219 15.0758 166.219 16.3238C166.219 17.5598 165.943 18.6578 165.391 19.6178C164.851 20.5778 164.077 21.3218 163.069 21.8498C162.073 22.3778 160.915 22.6418 159.595 22.6418H154.861V10.0058H159.595ZM159.397 19.9778C160.561 19.9778 161.467 19.6598 162.115 19.0238C162.763 18.3878 163.087 17.4878 163.087 16.3238C163.087 15.1598 162.763 14.2538 162.115 13.6058C161.467 12.9578 160.561 12.6338 159.397 12.6338H157.939V19.9778H159.397ZM185.547 16.1618C186.279 16.3178 186.867 16.6838 187.311 17.2598C187.755 17.8238 187.977 18.4718 187.977 19.2038C187.977 20.2598 187.605 21.0998 186.861 21.7238C186.129 22.3358 185.103 22.6418 183.783 22.6418H177.897V10.0058H183.585C184.869 10.0058 185.871 10.2998 186.591 10.8878C187.323 11.4758 187.689 12.2738 187.689 13.2818C187.689 14.0258 187.491 14.6438 187.095 15.1358C186.711 15.6278 186.195 15.9698 185.547 16.1618ZM180.975 15.1178H182.991C183.495 15.1178 183.879 15.0098 184.143 14.7938C184.419 14.5658 184.557 14.2358 184.557 13.8038C184.557 13.3718 184.419 13.0418 184.143 12.8138C183.879 12.5858 183.495 12.4718 182.991 12.4718H180.975V15.1178ZM183.243 20.1578C183.759 20.1578 184.155 20.0438 184.431 19.8158C184.719 19.5758 184.863 19.2338 184.863 18.7898C184.863 18.3458 184.713 17.9978 184.413 17.7458C184.125 17.4938 183.723 17.3678 183.207 17.3678H180.975V20.1578H183.243ZM200.699 20.4098H195.983L195.227 22.6418H192.005L196.577 10.0058H200.141L204.713 22.6418H201.455L200.699 20.4098ZM199.907 18.0338L198.341 13.4078L196.793 18.0338H199.907ZM208.655 16.3058C208.655 15.0578 208.925 13.9478 209.465 12.9758C210.005 11.9918 210.755 11.2298 211.715 10.6898C212.687 10.1378 213.785 9.86185 215.009 9.86185C216.509 9.86185 217.793 10.2578 218.861 11.0498C219.929 11.8418 220.643 12.9218 221.003 14.2898H217.619C217.367 13.7618 217.007 13.3598 216.539 13.0838C216.083 12.8078 215.561 12.6698 214.973 12.6698C214.025 12.6698 213.257 12.9998 212.669 13.6598C212.081 14.3198 211.787 15.2018 211.787 16.3058C211.787 17.4098 212.081 18.2918 212.669 18.9518C213.257 19.6118 214.025 19.9418 214.973 19.9418C215.561 19.9418 216.083 19.8038 216.539 19.5278C217.007 19.2518 217.367 18.8498 217.619 18.3218H221.003C220.643 19.6898 219.929 20.7698 218.861 21.5618C217.793 22.3418 216.509 22.7318 215.009 22.7318C213.785 22.7318 212.687 22.4618 211.715 21.9218C210.755 21.3698 210.005 20.6078 209.465 19.6358C208.925 18.6638 208.655 17.5538 208.655 16.3058ZM233.285 22.6418L229.037 17.0618V22.6418H225.959V10.0058H229.037V15.5498L233.249 10.0058H236.867L231.971 16.1978L237.047 22.6418H233.285Z" fill="black"/>
<path d="M251.861 16.7278H248.729V19.9318H245.813V16.7278H242.681V13.9738H245.813V10.7518H248.729V13.9738H251.861V16.7278Z" fill="#F4AF32"/>
</svg>
