<svg width="129" height="60" viewBox="0 0 129 60" fill="none" xmlns="http://www.w3.org/2000/svg">
<rect x="2" y="53.3911" width="94" height="2" fill="#FFC700"/>
<path d="M27.4951 43.3911H20.6811L9.28458 26.1369V43.3911H2.47058V15.4178H9.28458L20.6811 32.7517V15.4178H27.4951V43.3911ZM62.4731 15.4178V43.3911H55.6591V31.875H45.0596V43.3911H38.2456V15.4178H45.0596V26.376H55.6591V15.4178H62.4731ZM90.1387 29.0458C91.7592 29.3912 93.0609 30.2014 94.0438 31.4766C95.0268 32.7251 95.5182 34.1597 95.5182 35.7801C95.5182 38.1179 94.6947 39.9775 93.0476 41.3589C91.4272 42.7137 89.1558 43.3911 86.2336 43.3911H73.2033V15.4178H85.7953C88.6378 15.4178 90.856 16.0687 92.4499 17.3704C94.0704 18.6721 94.8806 20.4387 94.8806 22.6702C94.8806 24.3172 94.4423 25.6853 93.5657 26.7745C92.7156 27.8637 91.5733 28.6208 90.1387 29.0458ZM80.0173 26.7347H84.4803C85.5961 26.7347 86.4462 26.4956 87.0306 26.0174C87.6416 25.5127 87.9471 24.7821 87.9471 23.8258C87.9471 22.8694 87.6416 22.1389 87.0306 21.6341C86.4462 21.1294 85.5961 20.877 84.4803 20.877H80.0173V26.7347ZM85.0382 37.8921C86.1805 37.8921 87.0572 37.6397 87.6682 37.135C88.3057 36.6037 88.6245 35.8466 88.6245 34.8636C88.6245 33.8807 88.2924 33.1103 87.6283 32.5525C86.9907 31.9946 86.1008 31.7157 84.9585 31.7157H80.0173V37.8921H85.0382Z" fill="black"/>
<path d="M125.484 32.5126H118.551V39.6056H112.095V32.5126H105.162V26.4159H112.095V19.2831H118.551V26.4159H125.484V32.5126Z" fill="#FFC700"/>
</svg>
