<svg width="16" height="17" viewBox="0 0 16 17" fill="none" xmlns="http://www.w3.org/2000/svg">
<g clip-path="url(#clip0_1_1076)">
<path fill-rule="evenodd" clip-rule="evenodd" d="M9.58118 7.81649C9.57143 8.23232 9.40061 8.62781 9.10523 8.91844C8.80984 9.20906 8.41333 9.37176 8.00045 9.37176C7.58756 9.37176 7.19105 9.20906 6.89567 8.91844C6.60029 8.62781 6.42947 8.23232 6.41971 7.81649C6.42947 7.40067 6.60029 7.00517 6.89567 6.71455C7.19105 6.42393 7.58756 6.26123 8.00045 6.26123C8.41333 6.26123 8.80984 6.42393 9.10523 6.71455C9.40061 7.00517 9.57143 7.40067 9.58118 7.81649ZM8.00001 16.4467C8.73501 16.4467 9.09236 16.0236 9.21765 15.4512C9.34295 14.8787 9.57501 13.2076 9.7206 11.5578C9.86618 9.90805 8.00001 9.9916 8.00001 9.9916C8.00001 9.9916 6.12942 9.90716 6.27765 11.5578L6.7806 15.4512C6.90677 16.0227 7.26412 16.4467 7.99824 16.4467" fill="#919EAB"/>
<path fill-rule="evenodd" clip-rule="evenodd" d="M7.99997 3.85742C6.80548 3.86024 5.66072 4.33951 4.81609 5.1904C3.97146 6.04129 3.49571 7.19453 3.49291 8.39787C3.49291 9.99787 4.30909 11.389 5.54174 12.2005V10.9899C5.19307 10.6559 4.91549 10.254 4.72588 9.80852C4.53627 9.36308 4.4386 8.88343 4.4388 8.39876C4.43973 7.44757 4.81522 6.5356 5.48287 5.86301C6.15052 5.19042 7.05578 4.81214 7.99997 4.8112C8.94386 4.81238 9.84876 5.19063 10.5162 5.86301C11.1836 6.53539 11.5591 7.44699 11.5603 8.39787C11.5603 9.41653 11.1367 10.3356 10.4573 10.989V12.1996C11.0852 11.7868 11.6012 11.2231 11.9589 10.5592C12.3166 9.89537 12.5046 9.1523 12.5061 8.39698C12.5034 7.19364 12.0276 6.0404 11.183 5.18951C10.3383 4.33862 9.19358 3.85935 7.99909 3.85653L7.99997 3.85742ZM7.99997 1.7312C6.24558 1.73355 4.56371 2.43669 3.32317 3.68642C2.08262 4.93615 1.38466 6.63048 1.38232 8.39787C1.38232 11.293 3.22468 13.7632 5.78968 14.6823L5.71203 13.7045C4.50676 13.171 3.51997 12.2366 2.91685 11.0578C2.31372 9.8789 2.13086 8.5271 2.39888 7.22864C2.66689 5.93018 3.36952 4.76386 4.38914 3.92492C5.40876 3.08598 6.6835 2.62534 7.99997 2.62009C9.52035 2.62244 10.9778 3.23192 12.0529 4.31496C13.1279 5.39799 13.7329 6.86623 13.7353 8.39787C13.7341 9.52293 13.4074 10.6233 12.7951 11.5642C12.1828 12.5051 11.3115 13.2458 10.2879 13.6956L10.2103 14.6734C11.4987 14.2146 12.6143 13.3648 13.4035 12.241C14.1928 11.1171 14.617 9.77453 14.6176 8.39787C14.6153 6.63048 13.9173 4.93615 12.6768 3.68642C11.4362 2.43669 9.75436 1.73355 7.99997 1.7312Z" fill="#919EAB"/>
<path d="M7.99997 1.7312C6.24558 1.73355 4.56371 2.43669 3.32317 3.68642C2.08262 4.93615 1.38466 6.63048 1.38232 8.39787C1.38232 11.293 3.22468 13.7632 5.78968 14.6823L5.71203 13.7045C4.50676 13.171 3.51997 12.2366 2.91685 11.0578C2.31372 9.8789 2.13086 8.5271 2.39888 7.22864C2.66689 5.93018 3.36952 4.76386 4.38914 3.92492C5.40876 3.08598 6.6835 2.62534 7.99997 2.62009C9.52035 2.62244 10.9778 3.23192 12.0529 4.31496C13.1279 5.39799 13.7329 6.86623 13.7353 8.39787C13.7341 9.52293 13.4074 10.6233 12.7951 11.5642C12.1828 12.5051 11.3115 13.2458 10.2879 13.6956L10.2103 14.6734C11.4987 14.2146 12.6143 13.3648 13.4035 12.241C14.1928 11.1171 14.617 9.77453 14.6176 8.39787C14.6153 6.63048 13.9173 4.93615 12.6768 3.68642C11.4362 2.43669 9.75436 1.73355 7.99997 1.7312M7.99997 3.85742C6.80548 3.86024 5.66072 4.33951 4.81609 5.1904C3.97146 6.04129 3.49571 7.19453 3.49291 8.39787C3.49291 9.99787 4.30909 11.389 5.54174 12.2005V10.9899C5.19307 10.6559 4.91549 10.254 4.72588 9.80852C4.53627 9.36308 4.4386 8.88343 4.4388 8.39876C4.43973 7.44757 4.81522 6.5356 5.48287 5.86301C6.15052 5.19042 7.05578 4.81214 7.99997 4.8112C8.94386 4.81238 9.84876 5.19063 10.5162 5.86301C11.1836 6.53539 11.5591 7.44699 11.5603 8.39787C11.5603 9.41653 11.1367 10.3356 10.4573 10.989V12.1996C11.0852 11.7868 11.6012 11.2231 11.9589 10.5592C12.3166 9.89537 12.5046 9.1523 12.5061 8.39698C12.5034 7.19364 12.0276 6.0404 11.183 5.18951C10.3383 4.33862 9.19358 3.85935 7.99909 3.85653L7.99997 3.85742Z" stroke="#919EAB" stroke-width="0.3"/>
</g>
<defs>
<clipPath id="clip0_1_1076">
<rect width="15" height="16" fill="white" transform="translate(0.5 0.842285)"/>
</clipPath>
</defs>
</svg>
