<svg width="29" height="13" viewBox="0 0 29 13" fill="none" xmlns="http://www.w3.org/2000/svg">
<g clip-path="url(#clip0_1_1079)">
<path d="M24.733 6.04429C24.267 6.04429 23.833 6.13829 23.418 6.30829C23.2847 4.8161 22.5979 3.42777 21.4928 2.41628C20.3877 1.4048 18.9441 0.843331 17.446 0.842285C16.7026 0.843348 15.9657 0.980965 15.272 1.24829C15.015 1.34829 14.947 1.44829 14.945 1.64829V12.4353C14.9464 12.5356 14.9845 12.6319 15.0522 12.706C15.1198 12.7801 15.2122 12.8268 15.312 12.8373L24.732 12.8433C25.6334 12.843 26.4978 12.4848 27.1352 11.8474C27.7725 11.2101 28.1307 10.3457 28.131 9.44429C28.1307 8.5429 27.7725 7.6785 27.1352 7.04112C26.4978 6.40374 25.6334 6.04555 24.732 6.04529L24.733 6.04429ZM14.25 1.63829C14.1511 1.63957 14.0566 1.67936 13.9866 1.74919C13.9166 1.81903 13.8766 1.91341 13.875 2.01229L13.722 9.66829L13.875 12.4483C13.878 12.6513 14.045 12.8183 14.25 12.8183C14.455 12.8183 14.62 12.6503 14.624 12.4453V12.4483L14.791 9.66829L14.624 2.01129C14.6227 1.91259 14.5828 1.81832 14.513 1.74862C14.4431 1.67892 14.3487 1.63932 14.25 1.63829ZM9.9 12.5503V12.5493L10.096 9.66629L9.9 3.38229C9.895 3.22629 9.772 3.10429 9.62 3.10429C9.468 3.10429 9.344 3.22629 9.34 3.38229L9.166 9.66529L9.34 12.5493C9.34105 12.6229 9.37101 12.693 9.42341 12.7447C9.47581 12.7963 9.54643 12.8253 9.62 12.8253C9.69351 12.8245 9.76383 12.7952 9.81609 12.7435C9.86835 12.6918 9.89845 12.6218 9.9 12.5483V12.5493V12.5503ZM7.35 12.8263C7.474 12.8263 7.577 12.7263 7.583 12.5963L7.811 9.66629L7.583 4.06629C7.577 3.93629 7.475 3.83629 7.35 3.83629C7.225 3.83629 7.123 3.93629 7.117 4.06629L6.915 9.66629L7.117 12.5983C7.122 12.7263 7.224 12.8283 7.35 12.8283V12.8263ZM11.925 3.44229C11.8384 3.44228 11.7552 3.47657 11.6938 3.53765C11.6323 3.59873 11.5975 3.68164 11.597 3.76829L11.451 9.66829L11.597 12.5063C11.6019 12.59 11.6386 12.6687 11.6997 12.7261C11.7608 12.7836 11.8416 12.8155 11.9254 12.8152C12.0093 12.815 12.0899 12.7826 12.1506 12.7248C12.2114 12.6669 12.2476 12.588 12.252 12.5043V12.5063L12.416 9.66629L12.252 3.76629C12.2515 3.67991 12.2168 3.59725 12.1555 3.53635C12.0943 3.47546 12.0114 3.44128 11.925 3.44129V3.44229ZM2.92 12.6353C2.992 12.6353 3.05 12.5783 3.058 12.5003L3.35 9.66228L3.057 6.71829C3.047 6.63829 2.99 6.58329 2.917 6.58329C2.844 6.58329 2.787 6.64029 2.777 6.71829L2.519 9.66228L2.777 12.4983C2.784 12.5783 2.843 12.6343 2.917 12.6343L2.92 12.6353ZM5.118 12.7973C5.218 12.7973 5.296 12.7173 5.303 12.6153L5.563 9.66529L5.303 6.85828C5.296 6.75428 5.216 6.67629 5.118 6.67629C5.02 6.67629 4.938 6.75629 4.932 6.85929L4.702 9.66529L4.932 12.6153C4.93329 12.6639 4.95339 12.7102 4.98808 12.7443C5.02277 12.7784 5.06934 12.7978 5.118 12.7983V12.7973ZM10.768 12.8243C10.933 12.8243 11.068 12.6913 11.071 12.5223L11.251 9.66529L11.071 3.54229C11.067 3.37229 10.933 3.24029 10.768 3.24029C10.603 3.24029 10.468 3.37329 10.464 3.54229L10.304 9.66529L10.464 12.5213C10.467 12.6893 10.601 12.8213 10.767 12.8213L10.768 12.8243ZM13.09 12.8343C13.29 12.8343 13.437 12.6773 13.44 12.4843V12.4863V12.4843L13.588 9.66629L13.44 2.64629C13.437 2.45429 13.28 2.29629 13.09 2.29629C12.9 2.29629 12.742 2.45329 12.74 2.64629L12.608 9.66329L12.74 12.4853C12.743 12.6853 12.9 12.8323 13.09 12.8323V12.8343ZM8.48 12.8203C8.54723 12.8193 8.61146 12.7922 8.65919 12.7449C8.70693 12.6975 8.73446 12.6335 8.736 12.5663L8.948 9.66629L8.736 3.58829C8.73446 3.52106 8.70693 3.45705 8.65919 3.40969C8.61146 3.36233 8.54723 3.3353 8.48 3.33429C8.41244 3.3348 8.34777 3.36181 8.29991 3.40949C8.25204 3.45717 8.22478 3.52173 8.224 3.58929L8.036 9.66728L8.224 12.5693C8.2258 12.6363 8.25344 12.7001 8.30115 12.7472C8.34885 12.7944 8.41293 12.8213 8.48 12.8223V12.8203ZM4.014 6.47829C3.928 6.47829 3.859 6.54629 3.852 6.63829L3.608 9.66228L3.852 12.5893C3.859 12.6893 3.929 12.7493 4.014 12.7493C4.099 12.7493 4.168 12.6793 4.176 12.5893L4.453 9.66228L4.176 6.63629C4.168 6.54629 4.099 6.47628 4.014 6.47628V6.47829ZM6.23 4.89229C6.17505 4.89304 6.12252 4.915 6.08339 4.95357C6.04425 4.99215 6.02154 5.04436 6.02 5.09929L5.804 9.66529L6.02 12.6153C6.025 12.7303 6.117 12.8213 6.23 12.8213C6.343 12.8213 6.432 12.7313 6.44 12.6143L6.685 9.66428L6.44 5.09829C6.43797 5.04352 6.41511 4.99159 6.37608 4.95311C6.33705 4.91464 6.28479 4.89252 6.23 4.89128V4.89229ZM1.95 7.18229C1.94 7.11629 1.893 7.07229 1.835 7.07229C1.777 7.07229 1.728 7.11929 1.72 7.18229L1.448 9.66228L1.72 12.0893C1.728 12.1543 1.776 12.2013 1.835 12.2013C1.894 12.2013 1.94 12.1553 1.949 12.0913L2.259 9.66428L1.949 7.18429L1.95 7.18229ZM0.814 8.02228C0.756 8.02228 0.711 8.06729 0.704 8.13029L0.5 9.66228L0.702 11.1723C0.71 11.2363 0.755 11.2803 0.812 11.2803C0.869 11.2803 0.912 11.2363 0.912 11.1733L1.152 9.66329L0.912 8.12828C0.902 8.06528 0.857 8.02029 0.812 8.02029L0.814 8.02228Z" fill="#919EAB"/>
</g>
<defs>
<clipPath id="clip0_1_1079">
<rect width="28" height="12" fill="white" transform="translate(0.5 0.842285)"/>
</clipPath>
</defs>
</svg>
