<svg width="16" height="16" viewBox="0 0 16 16" fill="none" xmlns="http://www.w3.org/2000/svg">
<g clip-path="url(#clip0_1_1074)">
<path d="M8 0.342285C6.01088 0.342285 4.10322 1.13246 2.6967 2.53898C1.29018 3.94551 0.5 5.85316 0.5 7.84229C0.5 9.83141 1.29018 11.7391 2.6967 13.1456C4.10322 14.5521 6.01088 15.3423 8 15.3423C9.98912 15.3423 11.8968 14.5521 13.3033 13.1456C14.7098 11.7391 15.5 9.83141 15.5 7.84229C15.5 5.85316 14.7098 3.94551 13.3033 2.53898C11.8968 1.13246 9.98912 0.342285 8 0.342285V0.342285ZM11.44 11.1593C11.4087 11.2125 11.367 11.2588 11.3174 11.2956C11.2678 11.3323 11.2114 11.3587 11.1514 11.3731C11.0914 11.3876 11.0291 11.3898 10.9682 11.3797C10.9073 11.3696 10.8491 11.3474 10.797 11.3143C9.037 10.2383 6.819 9.99428 4.209 10.5913C4.08811 10.6182 3.96146 10.5964 3.8566 10.5305C3.75173 10.4646 3.67713 10.3599 3.649 10.2393C3.63525 10.1794 3.63345 10.1174 3.6437 10.0568C3.65396 9.99621 3.67607 9.93825 3.70877 9.88623C3.74147 9.8342 3.78412 9.78915 3.83426 9.75363C3.88441 9.71812 3.94107 9.69286 4.001 9.67929C6.858 9.02629 9.309 9.30729 11.286 10.5163C11.506 10.6513 11.586 10.9393 11.441 11.1593H11.44ZM12.358 9.11728C12.2769 9.24943 12.1467 9.34398 11.9959 9.38016C11.8452 9.41635 11.6862 9.39122 11.554 9.31029C9.538 8.07029 6.464 7.71229 4.08 8.43629C3.77 8.52929 3.444 8.35629 3.35 8.03628C3.256 7.71628 3.43 7.40129 3.75 7.30629C6.474 6.48029 9.85 6.88029 12.175 8.30329C12.45 8.47328 12.537 8.83329 12.368 9.10729L12.358 9.11728ZM12.438 6.99028C10.02 5.55429 6.03 5.42229 3.723 6.12229C3.54491 6.17626 3.35267 6.15727 3.18857 6.0695C3.02448 5.98174 2.90197 5.83238 2.848 5.65428C2.79403 5.47619 2.81301 5.28395 2.90078 5.11986C2.98855 4.95576 3.13791 4.83326 3.316 4.77928C5.966 3.97529 10.369 4.12929 13.153 5.78229C13.2323 5.8293 13.3015 5.89146 13.3567 5.96522C13.4119 6.03899 13.4521 6.12291 13.4749 6.21219C13.4977 6.30147 13.5027 6.39437 13.4896 6.48558C13.4765 6.5768 13.4455 6.66453 13.3985 6.74379C13.3515 6.82304 13.2893 6.89225 13.2156 6.94748C13.1418 7.00271 13.0579 7.04287 12.9686 7.06567C12.8793 7.08846 12.7864 7.09345 12.6952 7.08035C12.604 7.06724 12.5163 7.0363 12.437 6.98928L12.438 6.99028Z" fill="#919EAB"/>
</g>
<defs>
<clipPath id="clip0_1_1074">
<rect width="15" height="15" fill="white" transform="translate(0.5 0.342285)"/>
</clipPath>
</defs>
</svg>
