<svg width="30" height="31" viewBox="0 0 30 31" fill="none" xmlns="http://www.w3.org/2000/svg">
<path fill-rule="evenodd" clip-rule="evenodd" d="M3.75 6.75037C3.75 3.98894 5.98858 1.75037 8.75 1.75037H19.1789C20.505 1.75037 21.7768 2.27715 22.7145 3.21483L24.7855 5.2859C25.7232 6.22358 26.25 7.49535 26.25 8.82143V24.2504C26.25 27.0118 24.0114 29.2504 21.25 29.2504H8.75C5.98858 29.2504 3.75 27.0118 3.75 24.2504V6.75037ZM23.75 10.5004V24.2504C23.75 25.6311 22.6307 26.7504 21.25 26.7504H8.75C7.36929 26.7504 6.25 25.6311 6.25 24.2504V6.75037C6.25 5.36965 7.36929 4.25037 8.75 4.25037H17.5V6.75037C17.5 8.82143 19.1789 10.5004 21.25 10.5004H23.75ZM23.6113 8.00037C23.4886 7.64736 23.2871 7.32296 23.0178 7.05367L20.9467 4.9826C20.6774 4.71331 20.353 4.51179 20 4.38904V6.75037C20 7.44072 20.5596 8.00037 21.25 8.00037H23.6113Z" fill="#12131A"/>
<path d="M12.5 1.75037C11.8096 1.75037 11.25 2.31001 11.25 3.00037V19.2504H5C4.30964 19.2504 3.75 19.81 3.75 20.5004C3.75 21.1907 4.30964 21.7504 5 21.7504H11.25V28.0004C11.25 28.6907 11.8096 29.2504 12.5 29.2504C13.1904 29.2504 13.75 28.6907 13.75 28.0004V21.7504H25C25.6904 21.7504 26.25 21.1907 26.25 20.5004C26.25 19.81 25.6904 19.2504 25 19.2504H13.75V3.00037C13.75 2.31001 13.1904 1.75037 12.5 1.75037Z" fill="#12131A"/>
</svg>
