<svg width="17" height="14" viewBox="0 0 17 14" fill="none" xmlns="http://www.w3.org/2000/svg">
<g clip-path="url(#clip0_1_1066)">
<path d="M14.86 3.58229L14.87 4.00929C14.87 8.34628 11.57 13.3433 5.536 13.3433C3.75041 13.3472 2.00167 12.8354 0.5 11.8693C0.762976 11.8984 1.02743 11.9121 1.292 11.9103C2.76864 11.9139 4.20346 11.4201 5.365 10.5083C4.6805 10.4958 4.01698 10.2699 3.46712 9.86202C2.91726 9.45415 2.50852 8.88473 2.298 8.23328C2.501 8.26329 2.704 8.28329 2.918 8.28329C3.20923 8.28231 3.49917 8.24469 3.781 8.17129C3.03809 8.02108 2.37012 7.61823 1.89066 7.03121C1.4112 6.44418 1.14983 5.70923 1.151 4.95129V4.91128C1.6056 5.16499 2.11377 5.30754 2.634 5.32729C2.18395 5.02807 1.81482 4.62228 1.55941 4.14601C1.304 3.66973 1.17023 3.13772 1.17 2.59729C1.17 1.98729 1.332 1.42929 1.617 0.942285C3.232 2.94229 5.66 4.24229 8.38 4.37429C8.32816 4.12694 8.30135 3.875 8.3 3.62229C8.3 2.75238 8.64557 1.91809 9.26069 1.30297C9.87581 0.687856 10.7101 0.342285 11.58 0.342285C12.525 0.342285 13.378 0.738285 13.977 1.37829C14.7116 1.23683 15.4161 0.96885 16.059 0.586285C15.8146 1.34448 15.3018 1.98738 14.617 2.39429C15.277 2.32429 15.917 2.14029 16.507 1.88629C16.058 2.54013 15.5018 3.11351 14.862 3.58229H14.86Z" fill="#919EAB"/>
</g>
<defs>
<clipPath id="clip0_1_1066">
<rect width="16" height="13" fill="white" transform="translate(0.5 0.342285)"/>
</clipPath>
</defs>
</svg>
