<svg width="19" height="13" viewBox="0 0 19 13" fill="none" xmlns="http://www.w3.org/2000/svg">
<g clip-path="url(#clip0_1_1070)">
<path d="M17.2 2.72029C17.557 4.06029 17.557 6.85529 17.557 6.85529C17.557 6.85529 17.557 9.65028 17.2 10.9903C17.1029 11.3506 16.912 11.6787 16.6467 11.9412C16.3814 12.2036 16.0513 12.391 15.69 12.4843C14.36 12.8443 9.022 12.8443 9.022 12.8443C9.022 12.8443 3.685 12.8443 2.354 12.4843C1.99295 12.3905 1.66313 12.2029 1.39795 11.9405C1.13277 11.6781 0.941663 11.3503 0.844 10.9903C0.5 9.64929 0.5 6.85429 0.5 6.85429C0.5 6.85429 0.5 4.05929 0.857 2.71929C1.053 1.97929 1.632 1.39929 2.367 1.19929C3.696 0.842285 9.033 0.842285 9.033 0.842285C9.033 0.842285 14.37 0.842285 15.7 1.20229C16.434 1.40029 17.013 1.98229 17.21 2.72229L17.2 2.72029ZM7.288 9.39229L11.748 6.85429L7.288 4.31629V9.39229Z" fill="#919EAB"/>
</g>
<defs>
<clipPath id="clip0_1_1070">
<rect width="18" height="12" fill="white" transform="translate(0.5 0.842285)"/>
</clipPath>
</defs>
</svg>
